<?xml version="1.0" encoding="utf-8"?>
<!-- Generator: Adobe Illustrator 25.0.1, SVG Export Plug-In . SVG Version: 6.00 Build 0)  -->
<svg version="1.1" id="Layer_1" xmlns="http://www.w3.org/2000/svg" xmlns:xlink="http://www.w3.org/1999/xlink" x="0px" y="0px"
	 viewBox="0 0 10.9 17.9" style="enable-background:new 0 0 10.9 17.9;" xml:space="preserve">
<style type="text/css">
	.st0{fill:#FFFFFF;}
</style>
<g id="Layer_2_1_">
	<g id="Layer_1-2">
		<path class="st0" d="M6.8,10.6c0.4,0,0.7-0.3,0.7-0.8c0-0.2,0-0.4-0.2-0.5C7.2,9.2,7,9.1,6.9,9.2c-0.4,0-0.7,0.2-0.7,0.7
			C6.2,10.4,6.4,10.6,6.8,10.6z"/>
		<path class="st0" d="M4.5,10.6c0.4,0,0.7-0.3,0.7-0.8S5,9.1,4.6,9.2c-0.2,0-0.4,0-0.6,0.2C3.9,9.5,3.8,9.7,3.8,9.9
			C3.9,10.4,4.1,10.6,4.5,10.6z"/>
		<path class="st0" d="M5.5,0.6V0c0,0.1,0,0.2,0,0.3c0-0.1,0-0.2,0-0.3V0.6C4.8,3.9,0,8.3,0,12.1c0,4,2,5.8,5.4,5.8h0.1
			c3.5,0,5.4-1.9,5.4-5.8C10.9,8.3,6.1,3.9,5.5,0.6z M3.7,6.9c0.6-0.5,1.3-0.7,2-0.7c0.7,0,1.4,0.2,2,0.7c0.5,0.4,0.7,1,0.7,1.7
			c0,0.6-0.2,1.2-0.5,1.8c0,0.1-0.1,0.2-0.1,0.3l-0.1,0.6l-1.1,0.5l-0.2,0.4c-0.3,0.1-0.5,0.1-0.8,0.1c-0.1,0-0.3,0-0.4,0
			c-0.1,0-0.2,0-0.3-0.1l-0.2-0.4l-1.1-0.5l-0.1-0.6c-0.1-0.3-0.2-0.5-0.3-0.7C3,9.5,2.9,9.1,2.9,8.6C2.9,8,3.2,7.3,3.7,6.9z
			 M8.1,16c-0.2,0.2-0.4,0.4-0.5,0.4s-0.3-0.2-0.4-0.6l-0.1-0.2c-0.5-0.4-1.1-0.8-1.6-1.1c-0.6,0.3-1.1,0.7-1.7,1.2
			c-0.1,0.5-0.2,0.7-0.4,0.7c-0.2,0-0.4-0.1-0.5-0.4c-0.4,0-0.7-0.1-0.7-0.4c0-0.2,0.1-0.3,0.2-0.4c0.3-0.1,0.7-0.2,1-0.2
			c0.4-0.3,0.9-0.6,1.4-0.9c-0.6-0.3-1.2-0.5-1.8-0.7c-0.1,0.1-0.2,0.2-0.3,0.2c-0.1,0-0.2,0.1-0.2,0.1c-0.1,0-0.2,0-0.3-0.1
			c-0.1-0.1-0.1-0.1-0.1-0.2c0.1-0.2,0.2-0.4,0.3-0.5c0-0.1-0.1-0.3-0.1-0.4c0-0.1,0-0.2,0.1-0.3c0.1-0.1,0.1-0.1,0.2-0.1
			c0.1,0,0.3,0.1,0.4,0.2c0.2,0.2,0.4,0.4,0.6,0.6c0.6,0.2,1.2,0.5,1.8,0.8c0.3-0.2,0.8-0.4,1.5-0.7l0.3-0.1
			c0.2-0.2,0.4-0.4,0.6-0.6c0.1-0.1,0.2-0.2,0.4-0.2c0.1,0,0.1,0,0.2,0.1c0,0.1,0.1,0.2,0.1,0.3c0,0.1,0,0.3,0,0.4
			c0.1,0.1,0.2,0.3,0.3,0.5c0,0.1,0,0.2-0.1,0.2c-0.1,0.1-0.1,0.1-0.2,0.1c-0.1,0-0.2,0-0.2-0.1l-0.4-0.2c-0.6,0.2-1.2,0.4-1.8,0.7
			l0.2,0.1c0.3,0.1,0.6,0.3,1,0.6L7.5,15c0.8,0.1,1.2,0.3,1.2,0.6C8.7,15.8,8.5,15.9,8.1,16z"/>
		<path class="st0" d="M5.5,11.7c0.1,0,0.1,0,0.2-0.1c0.1,0,0.1,0.1,0.2,0.1c0.2,0,0.3-0.1,0.3-0.3c0-0.1-0.1-0.2-0.2-0.3
			c-0.1-0.1-0.2-0.3-0.3-0.4c-0.1,0.1-0.2,0.3-0.3,0.4c-0.1,0.1-0.2,0.2-0.2,0.3c0,0.1,0,0.1,0.1,0.2C5.4,11.7,5.4,11.7,5.5,11.7z"
			/>
	</g>
</g>
</svg>
