<svg id="Layer_1" data-name="Layer 1" xmlns="http://www.w3.org/2000/svg" viewBox="0 0 19 19"><defs><style>.cls-1{fill:#fff;}</style></defs><g id="Layer_2" data-name="Layer 2"><g id="Layer_1-2" data-name="Layer 1-2"><path class="cls-1" d="M9.36,18.69,9.61,17a7.46,7.46,0,0,0,4.61-1.82L19,19l-3.93-4.67a7.47,7.47,0,0,0,1.74-4.69l1.91-.28L16.8,9.07A7.46,7.46,0,0,0,15,4.68L19,0,14.15,3.8A7.46007,7.46007,0,0,0,9.66,2l-.3-2-.3,2h0L8.4,6.47a2.99979,2.99979,0,0,0-.78.39L4,4,6.84,7.63a3.00018,3.00018,0,0,0-.38.76L0,9.36l1.82.27A7.47,7.47,0,0,0,3.6,14.39L0,19l1-1,3.45-2.78A7.47,7.47,0,0,0,9.11,17l.25,1.67Zm-.71-3a6.82,6.82,0,0,1-6.78-6l4.57.67a2.9998,2.9998,0,0,0,.39.79l-1,1.75,1.74-1a3,3,0,0,0,.83.42l.5,3.4H8.65Zm1.18-.1.5-3.32a2.99987,2.99987,0,0,0,.77-.39l1.72,1-1-1.73a3,3,0,0,0,.4-.8l3.15-.47A6.82,6.82,0,0,1,9.8,15.61Zm5.64-6.71-3.24-.49a3.00009,3.00009,0,0,0-.4-.77l1-1.77-1.77,1a2.99984,2.99984,0,0,0-.73-.36L9.67,2.11a6.82,6.82,0,0,1,5.79,6.75Z"/></g></g></svg>