<svg id="Layer_1" data-name="Layer 1" xmlns="http://www.w3.org/2000/svg" viewBox="0 0 18.06 16.84401"><defs><style>.cls-1{fill:#fff;}</style></defs><g id="Layer_2" data-name="Layer 2"><g id="Layer_1-2" data-name="Layer 1-2"><path class="cls-1" d="M17.05,6.61v.63L17,7.56a2.9,2.9,0,0,1-3.27,2.25,4.11392,4.11392,0,0,1-.87-.22,2.82,2.82,0,0,1-4.39.6h0l-.07.07a3.54,3.54,0,0,1-1.62.9c-.26.06-.52.09-.78.14H5.61A3.66,3.66,0,0,1,2.9,9.89a.21.21,0,0,0-.16-.06A2.24,2.24,0,0,1,.29,8.27a1.61485,1.61485,0,0,0-.1-.36,3.5851,3.5851,0,0,1,0-.57.33977.33977,0,0,0,0-.07A2.2,2.2,0,0,1,1.94,5.44l.5-.08A2.83,2.83,0,0,1,6.21,3.1a4.42,4.42,0,0,1,8.62,1h.11a2.88,2.88,0,0,1,2,2.08C17,6.35,17,6.48,17.05,6.61Z" transform="translate(0 -0.01599)"/><polygon class="cls-1" points="1.52 11.234 0 15.964 2.65 12.124 1.52 11.234"/><polygon class="cls-1" points="5.45 12.604 5.04 16.844 7.16 12.604 5.45 12.604"/><polygon class="cls-1" points="10.79 12.414 11.67 16.634 12.1 12.124 10.79 12.414"/><polygon class="cls-1" points="14.58 11.424 18.06 16.844 15.82 10.894 14.58 11.424"/></g></g></svg>