<svg id="Layer_1" data-name="Layer 1" xmlns="http://www.w3.org/2000/svg" viewBox="0 0 15.40457 16.65"><defs><style>.cls-1{fill:#fff;}</style></defs><g id="Layer_2" data-name="Layer 2"><g id="Layer_1-2" data-name="Layer 1-2"><g id="YHMZe9.tif"><path class="cls-1" d="M7.59,16.65a.63.63,0,0,1-.42-.72v-.64l-.63.63a3.56941,3.56941,0,0,1-.28.27.52.52,0,0,1-.74-.73c.11-.13.24-.25.37-.38l1.2-1.19a.31.31,0,0,0,.07-.2V11.02a.25.25,0,0,0-.12-.19A2.77,2.77,0,0,1,5.7,10L3.47,11.2a.27.27,0,0,0-.09.16q-.23,1-.45,1.93a.57.57,0,0,1-.44.5.52.52,0,0,1-.6-.64c.07-.36.17-.72.25-1.09V11.9l-.62.33-.48.25A.52.52,0,0,1,.33524,12.27L.33,12.26a.51.51,0,0,1,.20418-.69175L.55,11.56l1-.52L.48,10.76a.53.53,0,1,1,.23-1c.61.14,1.24.26,1.84.44a.83.83,0,0,0,.73-.1c.63-.35,1.27-.68,1.92-1a2.43006,2.43006,0,0,1,0-1.47L3.49,6.67a1,1,0,0,0-.92-.14A13.47983,13.47983,0,0,1,.68,7,.52.52,0,1,1,.44,6l1-.24.2-.07L.57,5.1a.512.512,0,0,1,.22-1,.83009.83009,0,0,1,.34.09l1,.53-.23-1V3.54A.52.52,0,0,1,2.29,3a.51.51,0,0,1,.6.4c.16.63.3,1.26.46,1.88a.41.41,0,0,0,.17.24L5.69,6.66l.1-.09A2.54,2.54,0,0,1,7,5.81c.11,0,.16-.07.16-.19V2.9a.27.27,0,0,0-.07-.17L5.59,1.24A.52.52,0,0,1,6.3067.48639L6.33.51a9.66984,9.66984,0,0,0,.84.78V.62c0-.38.21-.62.52-.62a.56.56,0,0,1,.53266.58607L8.22.62v.69L9.06.49A.51.51,0,0,1,9.62.33.44.44,0,0,1,10,.74a.71.71,0,0,1-.15.45c-.49.51-1,1-1.49,1.51a.31.31,0,0,0-.1.18V5.77a2.68,2.68,0,0,1,1.46.9l2.2-1.18A.3.3,0,0,0,12,5.3l.45-1.86c.09-.36.35-.55.65-.47a.53.53,0,0,1,.36.7L13.2,4.79l.92-.49.26-.13a.52.52,0,0,1,.66.24.49.49,0,0,1-.17.66c-.28.18-.58.32-.88.48l-.26.15c.38.09.71.18,1,.24a.73.73,0,0,1,.59.44v.23c-.22.4-.36.46-.81.36h-.18l-1.9-.51a.22006.22006,0,0,0-.14,0l-2,1.08a.24.24,0,0,0-.09.2,2.38011,2.38011,0,0,1,0,1.17c0,.14,0,.19.12.24l2,1.07a.33.33,0,0,0,.21,0l2-.49c.46-.11.59,0,.81.36v.23a.72.72,0,0,1-.59.44c-.3.06-.59.14-.93.22l.95.51a.52.52,0,0,1,.26072.68762L15.02,12.2a.53.53,0,0,1-.71314.23074Q14.288,12.42111,14.27,12.41l-.22-.12-.91-.48.29,1.24a.52.52,0,1,1-1,.25c-.16-.68-.31-1.36-.47-2a.23.23,0,0,0-.09-.14L9.68,10a2.67,2.67,0,0,1-1.46.9v2.89a.31.31,0,0,0,.1.18c.5.5,1,1,1.49,1.51a.71.71,0,0,1,.15.45.44.44,0,0,1-.34.41.51.51,0,0,1-.56-.16l-.79-.81H8.21v.56a.63.63,0,0,1-.45.72ZM9.24,8.33A1.54513,1.54513,0,1,0,7.6995,9.87H7.7A1.56,1.56,0,0,0,9.24,8.33Z" transform="translate(0.06457 0)"/></g></g></g></svg>