<svg id="Layer_1" data-name="Layer 1" xmlns="http://www.w3.org/2000/svg" viewBox="0 0 21.23 19.95695"><defs><style>.cls-1{fill:#fff;}.cls-2{fill:#2c2f33;}</style></defs><g id="Layer_2" data-name="Layer 2"><g id="Layer_1-2" data-name="Layer 1-2"><path class="cls-1" d="M19.67,4.827S9.64-6.703,1.06,5.877c0,0,13-6.71,16.61,5Z" transform="translate(0 0)"/><path class="cls-1" d="M.53,18.947v-.53a20.88,20.88,0,0,1,.64-3.81c.49-1.8,3.09-2.71,4.18-3-.52-4.33.65-6.78,1.79-8.08a4.71,4.71,0,0,1,3.19-1.8,4.71,4.71,0,0,1,3.19,1.8c1.12,1.3,2.31,3.75,1.76,8.06,1.09.31,3.69,1.22,4.18,3a20.88,20.88,0,0,1,.64,3.81v.53Zm9.76-14.14A3,3,0,0,0,9,5.897a4.89,4.89,0,0,0-.42,3.87c.06.21,1.1,4.08,1.74,6.58.68-2.51,1.68-6.35,1.76-6.6a4.86,4.86,0,0,0-.42-3.84A2.64,2.64,0,0,0,10.29,4.80695Z" transform="translate(0 0)"/><path class="cls-2" d="M10.33,2.227c1.33,0,5.54,2.16,4.39,9.73,0,0,3.73.85,4.25,2.78a20.6,20.6,0,0,1,.63,3.71H10.34c.15-.89,2.22-8.57,2.22-8.57,1-4.4-1.89-5.56-2.23-5.56s-3.21,1.15-2.22,5.56c0,0,2.07,7.68,2.22,8.57H1.06a20.60017,20.60017,0,0,1,.63-3.71c.52-1.93,4.25-2.74,4.25-2.74C4.79,4.387,9,2.227,10.33,2.227m0-1a5.22,5.22,0,0,0-3.57,2c-1.15,1.34-2.37,3.8-1.93,8-1.31.43-3.62,1.42-4.12,3.25a21.47954,21.47954,0,0,0-.66,3.91L0,19.447H20.66l-.06-1.06a21.47983,21.47983,0,0,0-.66-3.91c-.49-1.83-2.8-2.82-4.12-3.25.45-4.23-.78-6.69-1.93-8a5.22,5.22,0,0,0-3.57-2Zm0,13.13c-.55-2.1-1.14-4.36-1.26-4.74-.69-3.06.78-4,1.26-4.26.48.23,1.95,1.2,1.26,4.3-.11.4-.7,2.61-1.25,4.7Z" transform="translate(0 0)"/><polygon class="cls-1" points="14.44 19.147 18.39 3.327 20.66 3.627 17.21 19.417 14.44 19.147"/><path class="cls-2" d="M18.77,3.877l1.29.12-3.24,14.88-1.76-.17,3.71-14.83M18,2.767l-.22.87-3.69,14.83-.28,1.13,1.19.1,1.76.17.88.09.19-.87L21,4.257l.23-1.06-1.08-.14-1.25-.17Z" transform="translate(0 0)"/></g></g></svg>