<svg id="Layer_1" data-name="Layer 1" xmlns="http://www.w3.org/2000/svg" viewBox="0 0 21 20.98"><defs><style>.cls-1{fill:#fff;}.cls-2{fill:#2c2f33;}</style></defs><g id="Layer_2" data-name="Layer 2"><g id="Layer_1-2" data-name="Layer 1-2"><polygon class="cls-1" points="9.13 17.92 0.7 19 6.43 15.28 0.23 11.21 6.61 11.21 0 0 8.57 5.5 7.15 1.26 10.48 3.35 12.71 0.51 15.41 4.28 18.11 0.81 16.58 16.25 9.13 17.92"/><path class="cls-1" d="M6.85,20.5l-.15-.17c-.29-.32-.57-.66-.83-1l-.39-.54.83-.31a3.78678,3.78678,0,0,1,.46-.16,23.99908,23.99908,0,0,0,3.89-1.37l.07-.15a1.80351,1.80351,0,0,1,.12-.44A5.88993,5.88993,0,0,1,10,14.1a.83012.83012,0,0,1-.2-.1,1.81958,1.81958,0,0,1-.28-.4A5.99983,5.99983,0,0,1,9,11.71a2.08075,2.08075,0,0,1,0-.26,1.05,1.05,0,0,1,.45-1,5.16026,5.16026,0,0,1-.1-.73,4.49,4.49,0,0,1,1.16-3.27A5.37,5.37,0,0,1,13.4,4.61a5.30042,5.30042,0,0,1,1-.11,4.08,4.08,0,0,1,3,1.24,2.80006,2.80006,0,0,0,.69.56A2.27,2.27,0,0,1,19.2,8a7.11,7.11,0,0,1,0,2.54.61733.61733,0,0,1-.05.32h0a1,1,0,0,1,.25.65A4.79,4.79,0,0,1,18.72,14a1,1,0,0,1-.54.48h0q-.135.465-.3.9a4.20081,4.20081,0,0,1-.28.56l-.16.29a.46.46,0,0,0,0,.11v.12a.74.74,0,0,0,.56.65c.71.26,1.42.5,2.14.73l.35.11V20.5Z"/><path class="cls-2" d="M14.45,5a3.59,3.59,0,0,1,2.62,1.09,3.1901,3.1901,0,0,0,.81.66,1.76,1.76,0,0,1,.83,1.33,6.55989,6.55989,0,0,1,0,2.36v.28c0,.09-.08.33.11.47a.47.47,0,0,1,.13.33,4.33008,4.33008,0,0,1-.6,2.27.42.42,0,0,1-.35.26h-.13c-.14.43-.25.85-.41,1.26a6.98106,6.98106,0,0,1-.42.8.77994.77994,0,0,0-.07.3,1.10922,1.10922,0,0,0,0,.23,1.23,1.23,0,0,0,.89,1c.72.26,1.43.5,2.16.74V20H7.07a12.60032,12.60032,0,0,1-.8-1c.23-.08.42-.17.62-.22a24.68962,24.68962,0,0,0,4-1.39.48.48,0,0,0,.3-.31c.07-.24.14-.48.2-.73a.31.31,0,0,0-.06-.22A5.36979,5.36979,0,0,1,10.46,14a.65993.65993,0,0,0-.15-.23,2.92029,2.92029,0,0,1-.34-.44,5.41005,5.41005,0,0,1-.49-1.69,1.52855,1.52855,0,0,1,0-.19c0-.42.12-.57.51-.67a9.59174,9.59174,0,0,1-.16-1.06,4,4,0,0,1,1-2.92A4.53408,4.53408,0,0,1,14.45,5m0-1h0a5.80072,5.80072,0,0,0-1.15.12,5.84,5.84,0,0,0-3.19,2A5,5,0,0,0,8.82,9.77a4.41014,4.41014,0,0,0,.05.51,1.64,1.64,0,0,0-.41,1.17,2.53093,2.53093,0,0,0,0,.32,6.43,6.43,0,0,0,.58,2,2.28989,2.28989,0,0,0,.36.51l.08.09h0a6.37,6.37,0,0,0,.79,2.06v.12a23.32013,23.32013,0,0,1-3.62,1.26,4.27012,4.27012,0,0,0-.52.18l-.2.07-1.25.45.79,1.08q.40326.55116.86,1.06l.3.33H21V17.65l-.7-.22c-.67-.21-1.36-.45-2.12-.72-.21-.08-.22-.12-.24-.27h0l.08-.14a4.57939,4.57939,0,0,0,.31-.62c.1-.26.19-.52.26-.77a1.54993,1.54993,0,0,0,.57-.6,5.28,5.28,0,0,0,.72-2.78,1.6,1.6,0,0,0-.22-.76v-.09a7.64992,7.64992,0,0,0,0-2.77,2.72,2.72,0,0,0-1.36-2,2.20987,2.20987,0,0,1-.52-.43h0A4.57,4.57,0,0,0,14.45,4Z"/></g></g></svg>