<svg id="Layer_1" data-name="Layer 1" xmlns="http://www.w3.org/2000/svg" viewBox="0 0 20.21979 20.20258"><defs><style>.cls-1,.cls-3{fill:none;}.cls-1,.cls-2{stroke:#fff;stroke-miterlimit:10;}.cls-2,.cls-4{fill:#fff;}.cls-5{fill:#2c2f33;}</style></defs><g id="Layer_2" data-name="Layer 2"><g id="Layer_1-2" data-name="Layer 1-2"><line class="cls-1" x1="15.24" y1="19.55258" x2="11.27" y2="16.50258"/><path class="cls-2" d="M9.36,9.48258c-.11-.1-.21-.21-.32-.32C9.24,9.35258,9.36,9.48258,9.36,9.48258Z" transform="translate(0 0)"/><path class="cls-2" d="M16.4,16.42258l-7.82-12h3.83l-4.84-1.58-.31-.55,4.19-.79L4.9.55258l-.51-.03L.5.50258v7.17l.76,3.72s.07-2.67,0-3a49.92076,49.92076,0,0,1,3,4c-.3-1.3-.69-3.51-.86-4.5Zm-9.24-8.12h.17l.07.18Z" transform="translate(0 0)"/><path class="cls-3" d="M5.4,7.42258c.11.11,1.89.9,2,1a18.81932,18.81932,0,0,0-1-2.32c-1.47-1.48.37-.81,0-2.68s-3.18-.47-5-1c.34,1.07-.77,1.89,1,4C3.46,7.74258,4.69,6.76258,5.4,7.42258Z" transform="translate(0 0)"/><path class="cls-4" d="M15.15,19.80258c-1.57,0-3.06-.58-3.46-1.35a5.69005,5.69005,0,0,0-2.65-.75H8.77a.74.74,0,0,1-.73-.61,1,1,0,0,1,.67-1.09,3.38,3.38,0,0,1,1.28-.2,7.9397,7.9397,0,0,1,1.92.22.93029.93029,0,0,0,.27,0,.29.29,0,0,0,.18,0v-.28a12.55709,12.55709,0,0,0-1-1.9c-1.83-3.27-2.16-4.07-1.87-4.47a.64.64,0,0,1,.5-.26c.72,0,1.86,1.1,2.47,2.12a6.00021,6.00021,0,0,0,1,1.31c-.18-.77-.69-2.28-.94-3l-.3-.9a1.17,1.17,0,0,1,1.24-1.64c.59,0,.88.83,1.51,3.49l.14.57c0-.35.07-.78.08-1.26,0-1.22.41-1.84,1.08-1.84a.61.61,0,0,1,.47.23c.57.68.24,3.33.23,3.35a2.5896,2.5896,0,0,0,0,.65c.54-1.08,1.63-2.05,2.28-2.05a.58.58,0,0,1,.57.39c.14.39-.08,1.1-1.62,3.62l-.18.29a10.5705,10.5705,0,0,0,0,1.34,13.58011,13.58011,0,0,1-.1,2.32c-.25,1.31-2.49,1.62-2.74,1.66h0Z" transform="translate(0 0)"/><path class="cls-5" d="M13.46,7.42258c.64,0,1.39,5,1.69,5h0c.29,0,.4-1.94.42-2.54s.12-1.48.71-1.48h0c.6,0,.38,2.73.31,3.15s0,1.34.33,1.34c.1,0,.23-.12.39-.45.51-1,1.5-1.87,2-1.87a.21.21,0,0,1,.21.14c.19.52-1.58,3.27-1.77,3.6s0,2.69-.17,3.77-2.42,1.35-2.42,1.35c-1.54,0-2.83-.58-3.12-1.15s-2.24-1-3-1H8.77c-.43,0-.58-.72.09-1a3.11989,3.11989,0,0,1,1.13-.1,7.6706,7.6706,0,0,1,1.81.2,1.3,1.3,0,0,0,.39.06c.37,0,.71-.19.49-.81-.29-.83-3.23-5.58-2.9-6a.26.26,0,0,1,.21-.15c.51,0,1.55.94,2.15,1.94s1.3,1.71,1.62,1.71a.15.15,0,0,0,.13-.06c.21-.29-1.1-3.9-1.29-4.54a.8.8,0,0,1,.83-1.1m0-.75a1.64,1.64,0,0,0-1.33.62,1.61,1.61,0,0,0-.22,1.45,5.65507,5.65507,0,0,0,.3.92l.32,1c-.64-.88-1.67-1.87-2.5-1.87a1,1,0,0,0-.83.41c-.41.53-.18,1.21,1.82,4.79.32.57.67,1.21.85,1.58a9.06044,9.06044,0,0,0-1.85-.15,3.66989,3.66989,0,0,0-1.45.23,1.38,1.38,0,0,0-.88,1.54,1.12,1.12,0,0,0,1.09.9h.24a6.15984,6.15984,0,0,1,2.38.61c.5.87,2.07,1.49,3.76,1.49h.09c.46-.06,2.77-.42,3.06-2a13.79956,13.79956,0,0,0,.1-2.4v-1.21l.13-.21c1.65-2.69,1.84-3.42,1.65-3.95a1,1,0,0,0-.92-.64,2.94,2.94,0,0,0-1.82,1.21c.07-.88.11-2.39-.38-3a1,1,0,0,0-.71-.36h0c-.53,0-1.12.24-1.38,1.23-.41-1.51-.76-2.19-1.48-2.19Z" transform="translate(0 0)"/><path class="cls-3" d="M1.36,1.47258l.92,6.53.71-3.66s3.42,4,3.33,3.79-2-4.37-2-4.37l4,.42-4.21-1.92,4.13-.75Z" transform="translate(0 0)"/></g></g></svg>